<svg id="Layer_1" height="512" viewBox="0 0 512 512" width="512" xmlns="http://www.w3.org/2000/svg" data-name="Layer 1"><path d="m372.65 96.84c-17.97-12.77-16.43-19.11-21.27-29.85-16.09-35.7-47.3-20.51-47.3-20.51-3.11-4.44-7.34-8.48-13.28-13.79-32.4-28.94-68.91-4.02-68.91-4.02-15.61-12.49-33.14-22.22-50.24 3.49a67.814 67.814 0 0 0 -8.22 16.4h-.01c-47.34 9.21-23.61 28.76-43.74 45.26-25.27 20.73-3.49 53 20.56 53.87 27.82 1.01 38.99 15.1 38.99 15.1l145.18-4.4c44.49 7.03 70.49-45.73 48.24-61.55z" fill="#5fa8ed"/><path d="m170.24 147.69c-24.05-.87-45.83-32.92-20.56-53.65 20.13-16.5-3.6-36.04 43.74-45.04h.01a69.612 69.612 0 0 1 8.22-16.62 47.366 47.366 0 0 1 9.7-11.086c-12.75-7.568-26.354-8.92-39.7 11.141a69.341 69.341 0 0 0 -8.22 16.565h-.01c-47.34 9-23.61 28.54-43.74 45.04-25.27 20.73-3.49 52.89 20.56 53.76 27.82 1.01 38.99 15.045 38.99 15.045l29.2-.913c-2.985-3.1-14.599-13.386-38.19-14.242z" fill="#4d88ba"/><g fill="#efc597"><path d="m296.44 269.89-90.05.66v41.48h.06c19.89 11.94 37.55 19.7 52.52 24.7 10.01-.64 29.88-13.98 36.94-23.76l.68.01v-42.97z"/><path d="m315.8 193.49-1.91 27.91c6.94.47 15.03-4.57 15.62-12.68.68-9.36-6.78-14.77-13.71-15.23z"/><path d="m171.35 208.72c.58 8.11 8.82 13.12 15.75 12.66l-1.86-27.94c-6.94.48-14.57 5.92-13.89 15.28z"/></g><path d="m315.8 193.49c-.47-11.71-2.53-18.44-2.65-18.8-51.21-16.09-104.59-5.39-125.15-.05 0 0-2.22 6.76-2.76 18.8a133.6 133.6 0 0 0 1.86 27.94 161.434 161.434 0 0 0 4.8 20.21l7.19 18.64v.01a103.964 103.964 0 0 0 7.3 10.31c8.54 10.79 23.88 26.45 42.14 28.42 19.37 2.09 37.98-16.78 47.91-29.08a122.031 122.031 0 0 0 7.43-10.12v-.01l5.18-18a162.545 162.545 0 0 0 4.84-20.36 134.438 134.438 0 0 0 1.91-27.91z" fill="#ffd8b7"/><path d="m309.05 241.76a33.189 33.189 0 0 0 22.69 2.13c7.56-1.95 10.42-3.77 10.67-3.93a84.232 84.232 0 0 1 -38.54 19.8 75.466 75.466 0 0 1 -39.86-2.28c-.97-.31-1.95-.65-2.93-1.01a31.56 31.56 0 0 0 -21.57 0c-1.06.39-2.12.76-3.17 1.09a75.514 75.514 0 0 1 -37.25 2.67 84.228 84.228 0 0 1 -40.9-20.27c.25.16 3.11 1.98 10.67 3.93a33.233 33.233 0 0 0 23.04-2.3c.42-.21.84-.42 1.25-.65 24.47-13.42 44.45-1.2 51.18 3.95a9.794 9.794 0 0 0 11.94 0c6.72-5.15 26.7-17.37 51.18-3.95.53.29 1.06.56 1.6.82z" fill="#6d7486"/><path d="m264.01 257.48v.01c-3.19 7.04-7.68 10.99-15.62 10.57-9.82-.52-12.05-10.49-12.05-10.49v-.01c1.05-.33 2.11-.7 3.17-1.09a31.56 31.56 0 0 1 21.57 0c.98.36 1.96.7 2.93 1.01z" fill="#efc597"/><path d="m440.76 415.13a111.994 111.994 0 0 0 -110.83-111.81l-33.34-.34-.68-.01c-7.06 9.78-26.93 23.12-36.94 23.76l51.81 169.27h130.12z" fill="#4ca987"/><path d="m206.39 302.03h.06c19.89 11.94 37.55 19.7 52.52 24.7 4.77 1.59 9.26 2.9 13.46 3.99l.38 165.28h-201.71v-82.37a112 112 0 0 1 114.03-111.98z" fill="#5fcda4"/><path d="m313.78 341.07v154.93h-40.97l-.38-165.28c16.91 4.35 29.16 4.95 35.76 4.83a5.5 5.5 0 0 1 5.59 5.52z" fill="#da6e84"/><path d="m174.43 435.61h66.76v39.56h-66.76z" fill="#6994fe"/><path d="m174.43 416.03h66.76v19.58h-66.76z" fill="#80aaff"/><path d="m293.36 386.48a6.675 6.675 0 1 1 -6.66 6.68 6.668 6.668 0 0 1 6.66-6.68z" fill="#6d7486"/><path d="m293.36 425.6a6.675 6.675 0 1 1 -6.66 6.68 6.668 6.668 0 0 1 6.66-6.68z" fill="#6d7486"/><path d="m293.36 464.72a6.675 6.675 0 1 1 -6.66 6.68 6.668 6.668 0 0 1 6.66-6.68z" fill="#6d7486"/><path d="m204.082 301.99-19.027-.34a112.023 112.023 0 0 0 -114.055 111.98v82.37h30v-82.37a112.053 112.053 0 0 1 103.082-111.64z" fill="#4ca987"/><path d="m187.224 74.552a5.982 5.982 0 0 1 -4.191-1.706c-11.815-11.534-6.569-25.763-.16-32.514a6 6 0 0 1 8.73 8.233 16.464 16.464 0 0 0 -3.211 5.735c-1.1 3.7-.143 6.867 3.024 9.959a6 6 0 0 1 -4.192 10.293z" fill="#386b8e"/><path d="m219.4 216.275a31.6 31.6 0 0 1 -17.335-5.318 6 6 0 0 1 7.029-9.726 18.738 18.738 0 0 0 20.522-.171 6 6 0 1 1 6.486 10.095 30.483 30.483 0 0 1 -16.702 5.12z" fill="#e0b899"/><path d="m283.723 216.275a31.6 31.6 0 0 1 -17.335-5.318 6 6 0 0 1 7.029-9.726 18.733 18.733 0 0 0 20.522-.171 6 6 0 1 1 6.486 10.095 30.485 30.485 0 0 1 -16.702 5.12z" fill="#e0b899"/><path d="m208.933 194.772a6 6 0 0 1 -2.545-11.437 28.37 28.37 0 0 1 23.017-.918 6 6 0 0 1 -4.494 11.127 16.291 16.291 0 0 0 -13.442.662 5.975 5.975 0 0 1 -2.536.566z" fill="#6d7486"/><path d="m274.441 194.772a6 6 0 0 1 -2.545-11.437 28.371 28.371 0 0 1 23.017-.918 6 6 0 0 1 -4.494 11.127 16.291 16.291 0 0 0 -13.442.662 5.975 5.975 0 0 1 -2.536.566z" fill="#6d7486"/><g fill="#386b8e"><path d="m181.664 155.42c-.1 0-.2 0-.3-.007-4.956-.246-13.862-2.746-17.832-16.713a52.155 52.155 0 0 1 -1.819-13.57 6 6 0 0 1 12 .2c0 .3.161 17.7 8.248 18.1a6 6 0 0 1 -.293 11.992z"/><path d="m325.409 159.738a6 6 0 0 1 -3.042-11.176c8.816-5.174 7.27-12.374 7.254-12.446a6 6 0 1 1 11.692-2.7c.149.644 3.46 15.91-12.872 25.5a5.983 5.983 0 0 1 -3.032.822z"/><path d="m221.967 143.328a5.989 5.989 0 0 1 -4.7-2.267c-7.928-9.972-9.983-22.775-5.943-37.024a57.925 57.925 0 0 1 5.434-13.037 6 6 0 0 1 10.272 6.2 46.7 46.7 0 0 0 -4.162 10.106c-2.983 10.523-1.708 19.366 3.792 26.284a6 6 0 0 1 -4.693 9.734z"/><path d="m242.85 141.01a5.974 5.974 0 0 1 -4.085-1.607c-7.616-7.085-5.806-19.153-5.574-20.5a6 6 0 0 1 11.832 2c-.361 2.256-.368 7.6 1.916 9.722a6 6 0 0 1 -4.089 10.393z"/><path d="m277.654 142.575a6 6 0 0 1 -4.786-9.614c7.736-10.255 4.968-20.448 4.938-20.548a6 6 0 0 1 11.491-3.46c.195.647 4.636 16.009-6.849 31.235a5.991 5.991 0 0 1 -4.794 2.387z"/></g><path d="m142.862 399.92a6 6 0 0 0 -6 6v90.12h12v-90.12a6 6 0 0 0 -6-6z" fill="#368464"/><path d="m367.374 399.92a6 6 0 0 0 -6 6v90.12h12v-90.12a6 6 0 0 0 -6-6z" fill="#368464"/><path d="m94.471 486.439a6 6 0 0 1 -6-6v-42.773a6 6 0 1 1 12 0v42.773a6 6 0 0 1 -6 6z" fill="#f4f8fc"/><path d="m94.471 424.9a6 6 0 0 1 -6-6v-3.1a6 6 0 0 1 12 0v3.1a6 6 0 0 1 -6 6z" fill="#f4f8fc"/><path d="m313.15 174.69c-51.21-16.09-104.59-5.39-125.15-.05-1.3.34-2.47.65-3.5.94a4.165 4.165 0 0 1 -5.27-4.03v-18.33a4.158 4.158 0 0 1 2.43-3.8 164.232 164.232 0 0 1 40.29-12.1 182.342 182.342 0 0 1 20.89-2.32 180.447 180.447 0 0 1 34.82 1.57 188.751 188.751 0 0 1 45.47 12.52 4.073 4.073 0 0 1 2.27 4.65l-.99 4.65-3.02 14.13a4.168 4.168 0 0 1 -5.39 3.09c-.95-.32-1.9-.63-2.85-.92z" fill="#4e7fa0"/><path d="m209 162.79v-9.57a4.266 4.266 0 0 1 2.545-3.8 164.948 164.948 0 0 1 40.347-12.1c4.751-.809 9.858-1.473 15.225-1.926a178.687 178.687 0 0 0 -45.174 1.926 165.642 165.642 0 0 0 -40.4 12.1 4.263 4.263 0 0 0 -2.541 3.8v18.33a4.258 4.258 0 0 0 5.385 4.03c1.03-.29 2.143-.6 3.442-.94 5.178-1.34 12.171-3.03 21.171-4.54z" fill="#3d5e70"/></svg>